<svg width="80" height="78" viewBox="0 0 80 78" fill="none" xmlns="http://www.w3.org/2000/svg">
<path d="M5.55957 29.0366C5.55957 20.573 5.55957 16.3413 7.22843 13.1087C8.69641 10.2652 11.0388 7.95336 13.9198 6.50452C17.1952 4.85742 21.4828 4.85742 30.0582 4.85742H49.9631C58.5384 4.85742 62.8261 4.85742 66.1014 6.50452C68.9825 7.95336 71.325 10.2652 72.7928 13.1087C74.4617 16.3413 74.4617 20.573 74.4617 29.0366V48.6818C74.4617 57.1454 74.4617 61.3771 72.7928 64.6097C71.325 67.4533 68.9825 69.7651 66.1014 71.2139C62.8261 72.861 58.5384 72.861 49.9631 72.861H30.0582C21.4828 72.861 17.1952 72.861 13.9198 71.2139C11.0388 69.7651 8.69641 67.4533 7.22843 64.6097C5.55957 61.3771 5.55957 57.1454 5.55957 48.6818V29.0366Z" fill="white"/>
<path d="M54.5465 20.6191L39.8135 31.9671L24.7437 20.6191V20.6222L24.7619 20.6375V36.5277L39.6437 48.1209L54.5465 36.9753V20.6191Z" fill="#EA4335"/>
<path d="M58.7695 17.9394L54.9004 20.6997V37.056L67.0752 27.8305V22.273C67.0752 22.273 65.5975 14.3357 58.7695 17.9394Z" fill="#FBBC05"/>
<path d="M54.9004 37.056V58.2704H64.2317C64.2317 58.2704 66.8872 58.0006 67.0781 55.0133V27.8306L54.9004 37.056Z" fill="#34A853"/>
<path d="M25.1176 58.2888V36.6081L25.0992 36.5928L25.1176 58.2888Z" fill="#C5221F"/>
<path d="M25.0985 20.7022L21.2507 17.9572C14.4228 14.3535 12.9419 22.2879 12.9419 22.2879V27.8452L25.0985 36.5924V20.7022Z" fill="#C5221F"/>
<path d="M25.0992 20.7031V36.5934L25.1176 36.6087V20.7185L25.0992 20.7031Z" fill="#C5221F"/>
<path d="M12.9419 27.8496V55.0323C13.13 58.0228 15.7884 58.2897 15.7884 58.2897H25.1198L25.0985 36.5937L12.9419 27.8496Z" fill="#4285F4"/>
</svg>
