<svg width="79" height="77" viewBox="0 0 79 77" fill="none" xmlns="http://www.w3.org/2000/svg">
<path d="M58.6552 4.80078H19.5517C11.4531 4.80078 4.88794 11.2487 4.88794 19.2027V57.6079C4.88794 65.5619 11.4531 72.0098 19.5517 72.0098H58.6552C66.7538 72.0098 73.319 65.5619 73.319 57.6079V19.2027C73.319 11.2487 66.7538 4.80078 58.6552 4.80078Z" fill="url(#paint0_radial_107_3)"/>
<path d="M58.6552 4.80078H19.5517C11.4531 4.80078 4.88794 11.2487 4.88794 19.2027V57.6079C4.88794 65.5619 11.4531 72.0098 19.5517 72.0098H58.6552C66.7538 72.0098 73.319 65.5619 73.319 57.6079V19.2027C73.319 11.2487 66.7538 4.80078 58.6552 4.80078Z" fill="url(#paint1_radial_107_3)"/>
<path d="M58.6552 4.80078H19.5517C11.4531 4.80078 4.88794 11.2487 4.88794 19.2027V57.6079C4.88794 65.5619 11.4531 72.0098 19.5517 72.0098H58.6552C66.7538 72.0098 73.319 65.5619 73.319 57.6079V19.2027C73.319 11.2487 66.7538 4.80078 58.6552 4.80078Z" fill="url(#paint2_radial_107_3)"/>
<path d="M56.2112 25.2035C56.2112 27.1919 54.5698 28.804 52.5452 28.804C50.5206 28.804 48.8793 27.1919 48.8793 25.2035C48.8793 23.215 50.5206 21.603 52.5452 21.603C54.5698 21.603 56.2112 23.215 56.2112 25.2035Z" fill="white"/>
<path fill-rule="evenodd" clip-rule="evenodd" d="M39.1035 50.4066C45.8523 50.4066 51.3233 45.0332 51.3233 38.4049C51.3233 31.7767 45.8523 26.4033 39.1035 26.4033C32.3547 26.4033 26.8837 31.7767 26.8837 38.4049C26.8837 45.0332 32.3547 50.4066 39.1035 50.4066ZM39.1035 45.6059C43.1529 45.6059 46.4354 42.382 46.4354 38.4049C46.4354 34.4278 43.1529 31.204 39.1035 31.204C35.0541 31.204 31.7716 34.4278 31.7716 38.4049C31.7716 42.382 35.0541 45.6059 39.1035 45.6059Z" fill="white"/>
<path fill-rule="evenodd" clip-rule="evenodd" d="M14.6638 37.445C14.6638 29.3792 14.6638 25.3461 16.2621 22.2655C17.6679 19.5555 19.9112 17.3523 22.6704 15.9716C25.8071 14.4019 29.9134 14.4019 38.1259 14.4019H40.0811C48.2935 14.4019 52.3999 14.4019 55.5365 15.9716C58.2957 17.3523 60.539 19.5555 61.9448 22.2655C63.5431 25.3461 63.5431 29.3792 63.5431 37.445V39.3652C63.5431 47.431 63.5431 51.4641 61.9448 54.5446C60.539 57.2546 58.2957 59.4579 55.5365 60.8385C52.3999 62.4083 48.2935 62.4083 40.0811 62.4083H38.1259C29.9134 62.4083 25.8071 62.4083 22.6704 60.8385C19.9112 59.4579 17.6679 57.2546 16.2621 54.5446C14.6638 51.4641 14.6638 47.431 14.6638 39.3652V37.445ZM38.1259 19.2025H40.0811C44.2681 19.2025 47.1141 19.2062 49.3141 19.3828C51.4572 19.5547 52.5531 19.8664 53.3176 20.249C55.1569 21.1695 56.6524 22.6383 57.5896 24.4448C57.9792 25.1956 58.2967 26.2719 58.4717 28.3768C58.6513 30.5375 58.6552 33.3327 58.6552 37.445V39.3652C58.6552 43.4775 58.6513 46.2726 58.4717 48.4334C58.2967 50.5382 57.9792 51.6146 57.5896 52.3654C56.6524 54.1719 55.1569 55.6406 53.3176 56.5611C52.5531 56.9437 51.4572 57.2556 49.3141 57.4274C47.1141 57.6038 44.2681 57.6077 40.0811 57.6077H38.1259C33.9389 57.6077 31.0929 57.6038 28.8928 57.4274C26.7497 57.2556 25.6538 56.9437 24.8894 56.5611C23.05 55.6406 21.5545 54.1719 20.6172 52.3654C20.2277 51.6146 19.9104 50.5382 19.7353 48.4334C19.5556 46.2726 19.5517 43.4775 19.5517 39.3652V37.445C19.5517 33.3327 19.5556 30.5375 19.7353 28.3768C19.9104 26.2719 20.2277 25.1956 20.6172 24.4448C21.5545 22.6383 23.05 21.1695 24.8894 20.249C25.6538 19.8664 26.7497 19.5547 28.8928 19.3828C31.0929 19.2062 33.9389 19.2025 38.1259 19.2025Z" fill="white"/>
<defs>
<radialGradient id="paint0_radial_107_3" cx="0" cy="0" r="1" gradientUnits="userSpaceOnUse" gradientTransform="translate(29.3276 55.2076) rotate(-54.8916) scale(61.6171 62.0028)">
<stop stop-color="#B13589"/>
<stop offset="0.79309" stop-color="#C62F94"/>
<stop offset="1" stop-color="#8A3AC8"/>
</radialGradient>
<radialGradient id="paint1_radial_107_3" cx="0" cy="0" r="1" gradientUnits="userSpaceOnUse" gradientTransform="translate(26.8836 74.4102) rotate(-64.7402) scale(54.409 55.0412)">
<stop stop-color="#E0E8B7"/>
<stop offset="0.444662" stop-color="#FB8A2E"/>
<stop offset="0.71474" stop-color="#E2425C"/>
<stop offset="1" stop-color="#E2425C" stop-opacity="0"/>
</radialGradient>
<radialGradient id="paint2_radial_107_3" cx="0" cy="0" r="1" gradientUnits="userSpaceOnUse" gradientTransform="translate(1.22199 7.20111) rotate(-7.98681) scale(95.0144 19.9738)">
<stop offset="0.156701" stop-color="#406ADC"/>
<stop offset="0.467799" stop-color="#6A45BE"/>
<stop offset="1" stop-color="#6A45BE" stop-opacity="0"/>
</radialGradient>
</defs>
</svg>
