<svg width="86" height="81" viewBox="0 0 86 81" fill="none" xmlns="http://www.w3.org/2000/svg">
<path d="M67.8251 40.4995C67.8251 33.9183 65.4143 28.3354 60.5928 23.7511C55.7713 19.1667 49.8998 16.8745 42.9781 16.8745V10.1245C47.4151 10.1245 51.571 10.9261 55.446 12.5292C59.3209 14.1323 62.693 16.2979 65.5622 19.0261C68.4315 21.7542 70.7091 24.9604 72.3952 28.6448C74.0812 32.3292 74.9242 36.2808 74.9242 40.4995H67.8251ZM53.6268 40.4995C53.6268 37.687 52.5915 35.2964 50.5209 33.3276C48.4504 31.3589 45.9361 30.3745 42.9781 30.3745V23.6245C47.8883 23.6245 52.0739 25.2698 55.5347 28.5604C58.9955 31.8511 60.7259 35.8308 60.7259 40.4995H53.6268ZM71.1972 70.8745C63.8022 70.8745 56.496 69.3417 49.2786 66.2761C42.0611 63.2104 35.4944 58.8651 29.5785 53.2401C23.6625 47.6151 19.0925 41.3714 15.8683 34.5089C12.6441 27.6464 11.032 20.6995 11.032 13.6683C11.032 12.6558 11.3869 11.812 12.0969 11.137C12.8068 10.462 13.6942 10.1245 14.759 10.1245H29.1348C29.963 10.1245 30.7025 10.3917 31.3533 10.9261C32.004 11.4604 32.3886 12.0933 32.5069 12.8245L34.8141 24.637C34.9324 25.537 34.9028 26.2964 34.7254 26.9151C34.5479 27.5339 34.2225 28.0683 33.7492 28.5183L25.1415 36.787C26.3247 38.8683 27.7297 40.8792 29.3566 42.8198C30.9835 44.7604 32.7731 46.6308 34.7254 48.4308C36.5593 50.1745 38.482 51.7917 40.4934 53.2823C42.5048 54.7729 44.6346 56.137 46.8826 57.3745L55.2241 49.4433C55.7565 48.937 56.4517 48.5573 57.3095 48.3042C58.1673 48.0511 59.0103 47.9808 59.8386 48.0933L72.0846 50.4558C72.9128 50.6808 73.5931 51.0886 74.1256 51.6792C74.658 52.2698 74.9242 52.9308 74.9242 53.662V67.3308C74.9242 68.3433 74.5693 69.187 73.8594 69.862C73.1494 70.537 72.262 70.8745 71.1972 70.8745ZM21.7694 30.3745L27.6262 24.8058L26.1177 16.8745H18.2199C18.5157 19.1808 18.9298 21.4589 19.4622 23.7089C19.9946 25.9589 20.7637 28.1808 21.7694 30.3745ZM53.5381 60.5808C55.8453 61.537 58.1969 62.2964 60.5928 62.8589C62.9888 63.4214 65.3995 63.787 67.8251 63.9558V56.5308L59.4836 54.9276L53.5381 60.5808Z" fill="white"/>
</svg>
