<svg width="700" height="700" viewBox="0 0 700 700" fill="none" xmlns="http://www.w3.org/2000/svg">
<path d="M622.222 350C622.222 274.167 595.81 209.838 542.986 157.014C490.162 104.19 425.833 77.7778 350 77.7778V0C398.611 0 444.144 9.23611 486.597 27.7083C529.051 46.1806 565.995 71.1343 597.431 102.569C628.866 134.005 653.819 170.949 672.292 213.403C690.764 255.856 700 301.389 700 350H622.222ZM466.667 350C466.667 317.593 455.324 290.046 432.639 267.361C409.954 244.676 382.407 233.333 350 233.333V155.556C403.796 155.556 449.653 174.514 487.569 212.431C525.486 250.347 544.444 296.204 544.444 350H466.667ZM659.167 700C578.148 700 498.102 682.338 419.028 647.014C339.954 611.69 268.009 561.62 203.194 496.806C138.38 431.991 88.3102 360.046 52.9861 280.972C17.662 201.898 0 121.852 0 40.8333C0 29.1667 3.88889 19.4444 11.6667 11.6667C19.4444 3.88889 29.1667 0 40.8333 0H198.333C207.407 0 215.509 3.0787 222.639 9.23611C229.769 15.3935 233.981 22.6852 235.278 31.1111L260.556 167.222C261.852 177.593 261.528 186.343 259.583 193.472C257.639 200.602 254.074 206.759 248.889 211.944L154.583 307.222C167.546 331.204 182.94 354.375 200.764 376.736C218.588 399.097 238.194 420.648 259.583 441.389C279.676 461.481 300.741 480.116 322.778 497.292C344.815 514.468 368.148 530.185 392.778 544.444L484.167 453.056C490 447.222 497.616 442.847 507.014 439.931C516.412 437.014 525.648 436.204 534.722 437.5L668.889 464.722C677.963 467.315 685.417 472.014 691.25 478.819C697.083 485.625 700 493.241 700 501.667V659.167C700 670.833 696.111 680.556 688.333 688.333C680.556 696.111 670.833 700 659.167 700ZM117.639 233.333L181.806 169.167L165.278 77.7778H78.75C81.9907 104.352 86.5278 130.602 92.3611 156.528C98.1944 182.454 106.62 208.056 117.639 233.333ZM465.694 581.389C490.972 592.407 516.736 601.157 542.986 607.639C569.236 614.12 595.648 618.333 622.222 620.278V534.722L530.833 516.25L465.694 581.389Z" fill="white"/>
</svg>
