<svg width="700" height="700" viewBox="0 0 700 700" fill="none" xmlns="http://www.w3.org/2000/svg">
<path d="M595 0H105C47.0101 0 0 47.0101 0 105V595C0 652.99 47.0101 700 105 700H595C652.99 700 700 652.99 700 595V105C700 47.0101 652.99 0 595 0Z" fill="#25D366"/>
<path d="M168.164 537.304L187.305 448.437C162.703 409.634 153.106 363.188 160.314 317.812C167.522 272.437 191.039 231.25 226.454 201.981C261.868 172.711 306.746 157.37 352.667 158.835C398.588 160.301 442.397 178.472 475.873 209.94C509.35 241.407 530.193 284.009 534.493 329.752C538.794 375.495 526.255 421.235 499.23 458.39C472.205 495.546 432.551 521.564 387.707 531.562C342.864 541.56 295.913 534.851 255.664 512.695L168.164 537.304Z" fill="#25D366" stroke="white" stroke-width="26"/>
<path d="M421.094 373.242C416.992 370.508 412.891 369.141 408.789 374.609L392.383 396.484C388.281 399.219 385.547 400.586 380.078 397.852C359.57 386.914 330.859 374.609 306.25 333.594C304.883 328.125 307.617 325.391 310.352 322.656L322.656 303.516C325.391 300.781 324.023 298.047 322.656 295.313L306.25 255.664C302.148 244.727 298.047 246.094 293.945 246.094H283.008C280.273 246.094 274.805 247.461 269.336 252.93C239.258 283.008 251.562 325.391 273.437 352.734C277.539 358.203 304.883 407.422 363.672 433.398C407.422 452.539 416.992 449.805 429.297 447.07C444.336 445.703 459.375 433.398 466.211 421.094C467.578 416.992 474.414 399.219 468.945 396.484" fill="white"/>
</svg>
