<svg width="69" height="69" viewBox="0 0 69 69" fill="none" xmlns="http://www.w3.org/2000/svg">
<path d="M68.4272 50.8136C68.4272 51.1859 68.4158 51.9934 68.3933 52.6172C68.3382 54.1435 68.2164 56.113 68.0323 57.0103C67.7556 58.3588 67.3379 59.6316 66.7932 60.6911C66.1488 61.9443 65.3268 63.0669 64.3501 64.0357C63.3755 65.0027 62.2469 65.8163 60.9877 66.4541C59.916 66.9968 58.6272 67.4121 57.2625 67.6859C56.3684 67.8653 54.4015 67.984 52.8754 68.0379C52.2471 68.0602 51.4343 68.0714 51.061 68.0714L17.365 68.0661C16.9903 68.0661 16.1778 68.0546 15.5501 68.0323C14.0142 67.9775 12.0324 67.8565 11.1294 67.6737C9.77239 67.3986 8.49151 66.9835 7.42548 66.4423C6.16432 65.8018 5.03474 64.985 4.0598 64.0143C3.0868 63.0458 2.26803 61.9244 1.62629 60.673C1.08004 59.608 0.662106 58.3272 0.386577 56.9711C0.206144 56.0826 0.0867239 54.1279 0.0323934 52.6113C0.0100731 51.987 -0.0012207 51.1793 -0.0012207 50.8084L0.00412547 17.3228C0.00412547 16.9504 0.0155529 16.1429 0.0380737 15.5192C0.0932061 13.9929 0.214898 12.0234 0.399007 11.1261C0.675739 9.77757 1.09341 8.50469 1.63812 7.44526C2.28253 6.19204 3.10457 5.06945 4.08125 4.1006C5.05586 3.13374 6.18444 2.32002 7.44366 1.68222C8.51537 1.13952 9.80427 0.724191 11.1689 0.450384C12.0629 0.271011 14.0299 0.152337 15.556 0.0984119C16.1843 0.0761647 16.9971 0.0649414 17.3703 0.0649414L51.0664 0.0703206C51.4411 0.0703206 52.2536 0.0816767 52.8813 0.104057C54.4172 0.158845 56.399 0.279777 57.3021 0.462736C58.659 0.737739 59.9399 1.1528 61.006 1.69411C62.2671 2.33449 63.3967 3.1514 64.3716 4.12198C65.3445 5.0905 66.1634 6.21196 66.8051 7.46339C67.3514 8.5284 67.7693 9.80918 68.0448 11.1653C68.2253 12.0538 68.3446 14.0085 68.399 15.5251C68.4214 16.1495 68.4327 16.9571 68.4327 17.3281L68.4272 50.8136Z" fill="url(#paint0_linear_65_2)"/>
<path d="M52.3458 16.1539C47.7128 11.546 41.5513 9.00698 34.9866 9.00439C21.4606 9.00439 10.4521 19.94 10.4467 33.3816C10.445 37.6782 11.575 41.8723 13.7224 45.5692L10.241 58.2023L23.2499 54.8123C26.8342 56.7543 30.8696 57.7779 34.9768 57.7796H34.9869C48.5116 57.7796 59.5211 46.8427 59.5266 33.401C59.5292 26.887 56.979 20.7619 52.3458 16.1539ZM34.9869 53.6622H34.9786C31.3187 53.6608 27.729 52.6841 24.5974 50.8379L23.8525 50.3988L16.1329 52.4105L18.1934 44.9333L17.7083 44.1667C15.6666 40.9406 14.5883 37.2117 14.5899 33.3832C14.5943 22.2111 23.7442 13.1218 34.9948 13.1218C40.4426 13.1239 45.5638 15.2344 49.4147 19.0643C53.2656 22.8942 55.3852 27.9852 55.3832 33.3994C55.3788 44.5724 46.2289 53.6622 34.9869 53.6622ZM46.1748 38.4866C45.5615 38.1817 42.547 36.708 41.9849 36.5047C41.4229 36.3014 41.0142 36.1998 40.6053 36.8097C40.1966 37.4195 39.0216 38.7916 38.6638 39.1981C38.3061 39.6046 37.9485 39.6555 37.3353 39.3505C36.7221 39.0457 34.7464 38.4024 32.4044 36.3272C30.5817 34.7121 29.351 32.7172 28.9933 32.1073C28.6357 31.4974 28.9553 31.1679 29.2623 30.8641C29.538 30.5912 29.8754 30.1527 30.182 29.797C30.4885 29.4413 30.5908 29.1871 30.7951 28.7806C30.9996 28.3741 30.8973 28.0183 30.744 27.7134C30.5908 27.4085 29.3644 24.4103 28.8535 23.1906C28.3558 22.0028 27.8502 22.1636 27.4738 22.1449C27.1166 22.1272 26.7074 22.1235 26.2987 22.1235C25.89 22.1235 25.2256 22.2759 24.6636 22.8858C24.1016 23.4956 22.5176 24.9693 22.5176 27.9675C22.5176 30.9657 24.7147 33.8623 25.0213 34.2688C25.3279 34.6754 29.3449 40.8282 35.4958 43.4667C36.9588 44.0942 38.1009 44.4691 38.9914 44.7498C40.4603 45.2133 41.797 45.148 42.8536 44.9912C44.0316 44.8163 46.4812 43.5176 46.9923 42.0947C47.5033 40.6718 47.5033 39.4522 47.35 39.1981C47.1967 38.944 46.7879 38.7916 46.1748 38.4866Z" fill="white"/>
<defs>
<linearGradient id="paint0_linear_65_2" x1="34.2157" y1="0.0649414" x2="34.2157" y2="68.0715" gradientUnits="userSpaceOnUse">
<stop stop-color="#61FD7D"/>
<stop offset="1" stop-color="#2BB826"/>
</linearGradient>
</defs>
</svg>
